2014001_C4_04_grf
version=1
nRows=18
nColumns=19
inDegrees=no
endheader
time	ground_force_1_vx	ground_force_1_vy	ground_force_1_vz	ground_force_1_px	ground_force_1_py	ground_force_1_pz	ground_force_1_mx	ground_force_1_my	ground_force_1_mz	ground_force_2_vx	ground_force_2_vy	ground_force_2_vz	ground_force_2_px	ground_force_2_py	ground_force_2_pz	ground_force_2_mx	ground_force_2_my	ground_force_2_mz
      0.77500000	      0.00000000	      0.00000000	      0.00000000	      0.00000000	      0.00000000	      0.00000000	      0.00000000	      0.00000000	      0.00000000	    -31.97173215	    478.75691950	     30.24039790	      0.90241694	     -0.00200000	     -0.38219861	      0.00000000	      0.73378658	      0.00000000
      0.77600000	      0.00000000	      0.00000000	      0.00000000	      0.00000000	      0.00000000	      0.00000000	      0.00000000	      0.00000000	      0.00000000	    -31.59255907	    477.07605362	     29.84249219	      0.90295234	     -0.00200000	     -0.38221691	      0.00000000	      0.69901582	      0.00000000
      0.77700000	      0.00000000	      0.00000000	      0.00000000	      0.00000000	      0.00000000	      0.00000000	      0.00000000	      0.00000000	      0.00000000	    -31.21759929	    475.45133531	     29.45541590	      0.90347398	     -0.00200000	     -0.38223051	      0.00000000	      0.66502310	      0.00000000
      0.77800000	      0.00000000	      0.00000000	      0.00000000	      0.00000000	      0.00000000	      0.00000000	      0.00000000	      0.00000000	      0.00000000	    -30.84595129	    473.87152910	     29.07709032	      0.90398459	     -0.00200000	     -0.38224048	      0.00000000	      0.63165009	      0.00000000
      0.77900000	      0.00000000	      0.00000000	      0.00000000	      0.00000000	      0.00000000	      0.00000000	      0.00000000	      0.00000000	      0.00000000	    -30.47834057	    472.34788537	     28.70976627	      0.90448134	     -0.00200000	     -0.38224606	      0.00000000	      0.59904885	      0.00000000
      0.78000000	      0.00000000	      0.00000000	      0.00000000	      0.00000000	      0.00000000	      0.00000000	      0.00000000	      0.00000000	      0.00000000	    -30.11386469	    470.86912394	     28.35125551	      0.90496700	     -0.00200000	     -0.38224829	      0.00000000	      0.56705928	      0.00000000
      0.78100000	      0.00000000	      0.00000000	      0.00000000	      0.00000000	      0.00000000	      0.00000000	      0.00000000	      0.00000000	      0.00000000	    -29.75317650	    469.44645047	     28.00371498	      0.90543879	     -0.00200000	     -0.38224648	      0.00000000	      0.53582351	      0.00000000
      0.78200000	      0.00000000	      0.00000000	      0.00000000	      0.00000000	      0.00000000	      0.00000000	      0.00000000	      0.00000000	      0.00000000	    -29.39540893	    468.06862950	     27.66488269	      0.90589946	     -0.00200000	     -0.38224155	      0.00000000	      0.50517958	      0.00000000
      0.78300000	      0.00000000	      0.00000000	      0.00000000	      0.00000000	      0.00000000	      0.00000000	      0.00000000	      0.00000000	      0.00000000	    -29.04114500	    466.74683690	     27.33680047	      0.90634624	     -0.00200000	     -0.38223289	      0.00000000	      0.47525707	      0.00000000
      0.78400000	      0.00000000	      0.00000000	      0.00000000	      0.00000000	      0.00000000	      0.00000000	      0.00000000	      0.00000000	      0.00000000	    -28.68955024	    465.46974778	     27.01718286	      0.90678195	     -0.00200000	     -0.38222139	      0.00000000	      0.44589612	      0.00000000
      0.78500000	      0.00000000	      0.00000000	      0.00000000	      0.00000000	      0.00000000	      0.00000000	      0.00000000	      0.00000000	      0.00000000	    -28.34111545	    464.24847841	     26.70795768	      0.90720383	     -0.00200000	     -0.38220647	      0.00000000	      0.41721796	      0.00000000
      0.78600000	      0.00000000	      0.00000000	      0.00000000	      0.00000000	      0.00000000	      0.00000000	      0.00000000	      0.00000000	      0.00000000	    -27.99505182	    463.07167411	     26.40686855	      0.90761471	     -0.00200000	     -0.38218897	      0.00000000	      0.38906903	      0.00000000
      0.78700000	      0.00000000	      0.00000000	      0.00000000	      0.00000000	      0.00000000	      0.00000000	      0.00000000	      0.00000000	      0.00000000	    -27.65174676	    461.95024252	     26.11570470	      0.90801193	     -0.00200000	     -0.38216841	      0.00000000	      0.36155751	      0.00000000
      0.78800000	      0.00000000	      0.00000000	      0.00000000	      0.00000000	      0.00000000	      0.00000000	      0.00000000	      0.00000000	      0.00000000	    -27.31047571	    460.87288857	     25.83226338	      0.90839829	     -0.00200000	     -0.38214556	      0.00000000	      0.33453231	      0.00000000
      0.78900000	      0.00000000	      0.00000000	      0.00000000	      0.00000000	      0.00000000	      0.00000000	      0.00000000	      0.00000000	      0.00000000	    -26.97151061	    459.85040069	     25.55818409	      0.90877117	     -0.00200000	     -0.38212000	      0.00000000	      0.30808373	      0.00000000
      0.79000000	      0.00000000	      0.00000000	      0.00000000	      0.00000000	      0.00000000	      0.00000000	      0.00000000	      0.00000000	      0.00000000	    -26.63419023	    458.87154341	     25.29135346	      0.90913335	     -0.00200000	     -0.38209241	      0.00000000	      0.28207023	      0.00000000
      0.79100000	      0.00000000	      0.00000000	      0.00000000	      0.00000000	      0.00000000	      0.00000000	      0.00000000	      0.00000000	      0.00000000	    -26.29865799	    457.94688165	     25.03326237	      0.90948230	     -0.00200000	     -0.38206245	      0.00000000	      0.25656628	      0.00000000
      0.79200000	      0.00000000	      0.00000000	      0.00000000	      0.00000000	      0.00000000	      0.00000000	      0.00000000	      0.00000000	      0.00000000	    -25.96432529	    457.06534386	     24.78191480	      0.90982074	     -0.00200000	     -0.38203068	      0.00000000	      0.23144592	      0.00000000
